<?xml version="1.0" encoding="UTF-8"?>
<svg
  width="800px"
  height="800px"
  viewBox="0 0 1024 1024"
  xmlns="http://www.w3.org/2000/svg"
  fill="#ffffff"
  role="img"
  version="1.1"
>
  <defs />
  <g id="bg" stroke-width="0" style="display:inline">
    <rect
      x="0"
      y="0"
      width="1024"
      height="1024"
      rx="512"
      fill="#5865f2"
      stroke-width="0"
      id="circle"
    />
  </g>
  <g id="coffee" style="display:inline" transform="translate(92, 92) scale(35)">
    <path
      d="M 20.2,6.4 20.1,5.7 C 20,5.2 19.7,4.6 19.1,4.4 18.9,4.3 18.7,4.3 18.5,4.1 18.4,4 18.3,3.8 18.3,3.6 18.2,3.2 18.2,2.8 18.1,2.4 18,2.1 18,1.7 17.8,1.4 17.6,1 17.2,0.8 16.8,0.6 A 5.7,5.7 0 0 0 16.2,0.5 c -1,-0.3 -2,-0.4 -3.1,-0.4 A 25.8,25.8 0 0 0 9.4,0.2 C 8.5,0.2 7.6,0.3 6.7,0.6 6.4,0.7 6,0.9 5.8,1.1 5.5,1.4 5.4,1.9 5.6,2.2 5.8,2.5 6,2.7 6.3,2.8 6.7,3 7,3.1 7.4,3.2 c 1.1,0.2 2.2,0.3 3.3,0.4 1.2,0.1 2.4,0 3.6,-0.1 0.4,-0.1 0.7,-0.1 1,-0.2 0.3,0 0.6,-0.5 0.4,-0.8 C 15.6,2.1 15.3,2 14.9,2 14.4,2.1 14,2.1 13.5,2.2 c -1.1,0 -2.3,0 -3.5,0 A 22.2,22.2 0 0 1 8.8,2.1 C 8.8,2.1 8.7,2 8.6,2 8.3,2 8.1,1.9 7.9,1.9 7.7,1.9 7.7,1.7 7.9,1.7 v 0 C 8.1,1.6 8.4,1.6 8.7,1.5 v 0 c 0.1,0 0.3,0 0.4,0 a 25.1,25.1 0 0 1 3.4,-0.1 c 0.7,0 1.3,0.1 2,0.1 h 0.2 c 0.3,0 0.5,0.1 0.8,0.1 0.4,0.1 0.9,0.1 1.1,0.5 0.1,0.1 0.1,0.3 0.1,0.4 L 17,4 a 0.2,0.2 0 0 1 -0.2,0.3 v 0 c 0,0 -0.1,0 -0.1,0 A 36.7,36.7 0 0 1 12,4.7 37.1,37.1 0 0 1 7.3,4.4 C 7.2,4.4 7,4.4 6.9,4.4 6.6,4.3 6.2,4.3 5.9,4.2 5.5,4.2 5.2,4.2 4.8,4.4 4.5,4.5 4.3,4.8 4.1,5.1 4,5.4 3.9,5.7 3.9,6.1 3.8,6.4 3.7,6.8 3.7,7.1 3.8,7.9 4.3,8.5 5.1,8.6 A 39.7,39.7 0 0 0 16.4,9 0.5,0.5 0 0 1 16.9,9.5 l -0.1,0.7 -1,9.9 c 0,0.4 0,0.8 -0.1,1.2 -0.1,0.6 -0.6,1 -1.2,1.2 -0.6,0.1 -1.2,0.2 -1.8,0.2 -0.7,0 -1.3,0 -2,0 -0.5,0 -1.4,0 -1.9,-0.5 C 8.3,21.7 8.2,21 8.1,20.4 L 7.4,13.4 7.1,10.3 C 7.1,9.9 6.8,9.6 6.4,9.6 6.1,9.6 5.7,9.9 5.7,10.3 l 0.2,2.2 0.9,9.1 c 0.1,1.3 1.2,2.1 2.4,2.3 0.7,0.1 1.5,0.1 2.3,0.2 1,0 1.9,0.1 2.9,-0.1 1.4,-0.3 2.5,-1.2 2.6,-2.7 0.3,-3.3 0.7,-6.7 1,-10 L 18.2,9.2 A 0.5,0.5 0 0 1 18.6,8.8 C 19.2,8.6 19.5,8.5 19.8,8.2 20.3,7.7 20.4,7.1 20.2,6.4 Z M 18.7,7.2 C 18.6,7.3 18.4,7.4 18.2,7.4 15.7,7.8 13.3,8 10.9,7.9 9.1,7.8 7.4,7.6 5.6,7.4 5.5,7.4 5.3,7.3 5.2,7.2 5,7 5.1,6.5 5.1,6.2 5.2,5.9 5.3,5.6 5.6,5.6 6.1,5.5 6.6,5.7 7.1,5.8 7.7,5.9 8.3,5.9 8.8,6 c 2.5,0.2 5,0.2 7.5,-0.1 0.5,-0.1 0.9,-0.1 1.3,-0.2 0.4,-0.1 0.8,-0.2 1.1,0.2 0.2,0.3 0.2,0.7 0.2,1 a 0.5,0.5 0 0 1 -0.2,0.4 z m -6.2,3.9 c -0.9,0.4 -1.8,0.8 -3.1,0.8 A 5.9,5.9 0 0 1 7.9,11.7 l 0.9,9 c 0.1,0.8 0.7,1.4 1.5,1.4 0,0 1.2,0.1 1.7,0.1 0.4,0 1.8,-0.1 1.8,-0.1 0.8,0 1.4,-0.6 1.5,-1.4 l 0.9,-9.9 a 4,4 0 0 0 -1.3,-0.2 c -0.8,0 -1.5,0.3 -2.3,0.6 z"
      id="cup"
    />
  </g>
</svg>
